<svg width="24" height="24" viewBox="0 0 24 24" fill="none" xmlns="http://www.w3.org/2000/svg">
<path d="M21 16V8.00001C20.9997 7.65101 20.908 7.30817 20.7342 7.00556C20.5603 6.70294 20.3103 6.45108 20.009 6.27501L20 6.27001L13 2.27001C12.713 2.10201 12.368 2.00201 12 2.00201C11.632 2.00201 11.287 2.10101 10.991 2.27501L11 2.27001L4 6.27001C3.69647 6.44561 3.44435 6.69781 3.26886 7.00141C3.09337 7.305 3.00066 7.64935 3 8.00001V16C3.00032 16.349 3.09196 16.6919 3.26581 16.9945C3.43966 17.2971 3.68967 17.5489 3.991 17.725L4 17.73L11 21.73C11.287 21.898 11.632 21.998 12 21.998C12.368 21.998 12.713 21.899 13.009 21.725L13 21.73L20 17.73C20.3035 17.5544 20.5556 17.3022 20.7311 16.9986C20.9066 16.695 20.9993 16.3507 21 16Z" stroke="white" stroke-width="2" stroke-linecap="round" stroke-linejoin="round"/>
<path d="M3.26999 6.96001L12 12.01L20.73 6.96001M12 22.08V12" stroke="white" stroke-width="2" stroke-linecap="round" stroke-linejoin="round"/>
</svg>
